# xmcd CD database file
# Copyright (C) 1993-1996 Ti Kan
#
# Track frame offsets:
# 150
# 15437
# 30840
# 41740
# 55387
# 68270
# 88925
# 102225
# 115135
# 132255
#
# Disc length: 1934 seconds
#
# Revision: 0
# Processed by: cddbd v1.4b41PL1 Copyright (c) Steve Scherf et al.
# Submitted via: inCDius 1.1b5
#
DISCID=76078c0a
DTITLE=Conway Twitty - Number Ones
DYEAR=1900
DGENRE=
TTITLE0=I'd Just Love To Lay You Down
TTITLE1=Touch The Hand
TTITLE2=Boogie Grass Band
TTITLE3=A Bridge That Just Won't Burn
TTITLE4=I May Never Get To Heaven
TTITLE5=Rest Your Love On Me
TTITLE6=Happy Birthday Darlin'
TTITLE7=I See The Want To In Your Eyes
TTITLE8=Don't Take It Away
TTITLE9=I've Never Seen The Likes Of You
EXTD=
EXTT0=
EXTT1=
EXTT2=
EXTT3=
EXTT4=
EXTT5=
EXTT6=
EXTT7=
EXTT8=
EXTT9=
PLAYORDER=
